<?xml version="1.0"?>
<svg xmlns="http://www.w3.org/2000/svg" xmlns:xlink="http://www.w3.org/1999/xlink" viewBox="0 0 512 512" width="512" height="512"><defs><linearGradient id="linear-gradient" x1="55.833" y1="483.146" x2="463.147" y2="75.832" gradientUnits="userSpaceOnUse"><stop offset="0" stop-color="#41dfd0"/><stop offset="1" stop-color="#ee83ef"/></linearGradient></defs><g id="gradient"><path d="M488,432H435.433l-.244-.267,12.4-37.2A8,8,0,0,0,440,384H391.73l-44.814-49.222a8,8,0,0,0-11.242-.583l-17.906,15.981a8,8,0,0,0-.642,11.3L337.232,384H232a8,8,0,0,0-7.59,10.53L236.9,432H157.953l-21.275-70.914,44.556-74.262,18.484-5.281A87.487,87.487,0,0,0,248,296a88.435,88.435,0,0,0,83.66-60.676,88.252,88.252,0,0,0,63.12-2.464,21.919,21.919,0,0,0,24.355,5.567A21.924,21.924,0,0,0,449.172,216.6a21.85,21.85,0,0,0,4.022-20.825h0a21.851,21.851,0,0,0-10.834-12.724A88.044,88.044,0,0,0,375.051,65.307,88.028,88.028,0,0,0,250.422,28.716,100.171,100.171,0,0,0,162.1,42.46a100.051,100.051,0,0,0-116.038,131.9A95.492,95.492,0,0,0,40,208a96.524,96.524,0,0,0,54.149,86.4L57.423,347.446a7.992,7.992,0,0,0-1.39,5.279L63.24,432H24a8,8,0,0,0,0,16H488a8,8,0,0,0,0-16Zm-59.1-32-6.057,18.173L406.3,400Zm-88.482-48.593,73.151,80.345L392.453,432h-2.744l-.018-10.215a8,8,0,0,0-2.031-5.313l-53.269-59.686Zm95.416-144.083a8,8,0,0,0-2.907,8.946,5.908,5.908,0,0,1-9.089,6.6,8,8,0,0,0-9.406,0,5.907,5.907,0,0,1-9.088-6.6,8,8,0,0,0-2.907-8.946,5.906,5.906,0,0,1,3.47-10.683h0a8,8,0,0,0,7.61-5.53,5.907,5.907,0,0,1,11.234,0,8,8,0,0,0,7.608,5.529h0a5.906,5.906,0,0,1,3.471,10.683ZM56,208a79.54,79.54,0,0,1,6.043-30.55,7.992,7.992,0,0,0,.026-6.049A84.052,84.052,0,0,1,161.777,58.855a8,8,0,0,0,6.956-1.395,84.124,84.124,0,0,1,80.01-12.413,8.007,8.007,0,0,0,7.195-.875,72.02,72.02,0,0,1,106.3,31.564,8,8,0,0,0,6.407,4.8,72.059,72.059,0,0,1,60.166,92.741,21.934,21.934,0,0,0-28.237,8.017A21.922,21.922,0,0,0,389.1,216.6c-.031.432-.045.863-.049,1.293a72.095,72.095,0,0,1-59.4-.6,8,8,0,0,0-11.206,5.6,72.029,72.029,0,0,1-96.408,52.268l12.157-3.474a8,8,0,0,0,4.958-4.114l38.355-76.709,60.43-15.108a8,8,0,0,0,4.716-3.323l32-48A8,8,0,0,0,368,112H328a8,8,0,0,0-7.59,5.47L313.8,137.3,254.06,152.239a8,8,0,0,0-4.716,3.323l-46.162,69.244-30.08,6.015-21.612-57.63A8,8,0,0,0,144,168H112a8,8,0,0,0-7.59,10.53l22.736,68.205-23.761,34.322A80.423,80.423,0,0,1,56,208Zm62.417,224L112.7,406.265a8,8,0,1,0-15.619,3.47L102.027,432H79.306L72.23,354.167l70.347-101.613a8,8,0,0,0,1.013-7.084L123.1,184h15.356l22.054,58.809a7.992,7.992,0,0,0,9.059,5.036l40-8a8,8,0,0,0,5.087-3.407l46.284-69.427,61-15.25a8,8,0,0,0,5.65-5.231L333.766,128h19.286L331.06,160.989l-61,15.25a8,8,0,0,0-5.215,4.183l-38.427,76.852L173.8,272.308a8,8,0,0,0-4.663,3.576l-48,80a8,8,0,0,0-.8,6.415L141.248,432ZM251.1,424H296a8,8,0,0,0,0-16H245.766l-2.666-8H351.513l7.14,8H328a8,8,0,0,0,0,16h44.933l.763.855.012,7.145H253.766ZM72,480a8,8,0,0,1,0-16H96a8,8,0,0,1,0,16Zm72,0a8,8,0,0,1,0-16h16a8,8,0,0,1,0,16Zm48,0a8,8,0,0,1,0-16h48a8,8,0,0,1,0,16Zm128-8a8,8,0,0,1-8,8H296a8,8,0,0,1,0-16h16A8,8,0,0,1,320,472Zm88,0a8,8,0,0,1-8,8H352a8,8,0,0,1,0-16h48A8,8,0,0,1,408,472ZM107.365,382.265a8,8,0,1,1-15.619,3.47l-3.556-16a8,8,0,0,1,15.62-3.47Zm60.45-237.671a21.838,21.838,0,0,0,21.05,2.608A21.92,21.92,0,0,0,218.9,125.38a21.847,21.847,0,0,0,4.023-20.827h0a21.842,21.842,0,0,0-15.5-14.485,21.922,21.922,0,0,0-37.127,0,21.923,21.923,0,0,0-11.474,35.31A21.852,21.852,0,0,0,167.815,144.594Zm2.207-35.1a5.892,5.892,0,0,1,5.615-4.082h0a8,8,0,0,0,7.608-5.527,5.907,5.907,0,0,1,11.235,0,8,8,0,0,0,7.609,5.529h0a5.889,5.889,0,0,1,5.614,4.081h0a5.888,5.888,0,0,1-2.144,6.6,8,8,0,0,0-2.907,8.946,5.906,5.906,0,0,1-9.087,6.6,8,8,0,0,0-9.408,0,5.907,5.907,0,0,1-9.088-6.6,8,8,0,0,0-2.907-8.946A5.892,5.892,0,0,1,170.022,109.5Zm93.792,3.286a21.847,21.847,0,0,0,21.051,2.611A21.922,21.922,0,0,0,314.9,93.572a21.922,21.922,0,0,0-11.472-35.31,21.922,21.922,0,0,0-37.128,0,21.922,21.922,0,0,0-11.473,35.309A21.846,21.846,0,0,0,263.814,112.784Zm2.208-35.094a5.892,5.892,0,0,1,5.615-4.082h0a8,8,0,0,0,7.608-5.528,5.907,5.907,0,0,1,11.234,0,8,8,0,0,0,7.61,5.529h0a5.889,5.889,0,0,1,5.614,4.081h0a5.887,5.887,0,0,1-2.144,6.6,8,8,0,0,0-2.907,8.946,5.906,5.906,0,0,1-9.088,6.6,8,8,0,0,0-9.406,0,5.907,5.907,0,0,1-9.089-6.6,8,8,0,0,0-2.907-8.946A5.892,5.892,0,0,1,266.022,77.69Zm212.9,230.087a21.843,21.843,0,0,0-15.5-14.483,21.922,21.922,0,0,0-37.128,0A21.922,21.922,0,0,0,414.828,328.6a21.9,21.9,0,0,0,30.037,21.824A21.922,21.922,0,0,0,474.9,328.6,21.841,21.841,0,0,0,478.924,307.777Zm-17.361,11.547a8,8,0,0,0-2.907,8.946,5.906,5.906,0,0,1-9.088,6.6,8,8,0,0,0-9.406,0,5.907,5.907,0,0,1-9.089-6.6,8,8,0,0,0-2.907-8.946,5.906,5.906,0,0,1,3.471-10.683h0a8,8,0,0,0,7.608-5.529,5.907,5.907,0,0,1,11.234,0,8,8,0,0,0,7.61,5.53h0a5.888,5.888,0,0,1,5.614,4.081h0A5.885,5.885,0,0,1,461.563,319.324Zm-198.639,9.421a21.847,21.847,0,0,0-15.495-14.483,21.922,21.922,0,0,0-37.128,0,21.922,21.922,0,0,0-11.473,35.309A21.9,21.9,0,0,0,228.865,371.4,21.922,21.922,0,0,0,258.9,349.572,21.843,21.843,0,0,0,262.924,328.745Zm-17.361,11.548a8,8,0,0,0-2.907,8.946,5.906,5.906,0,0,1-9.088,6.6,8,8,0,0,0-9.406,0,5.907,5.907,0,0,1-9.089-6.6,8,8,0,0,0-2.907-8.946,5.907,5.907,0,0,1,3.471-10.685h0a8,8,0,0,0,7.608-5.528,5.907,5.907,0,0,1,11.234,0,8,8,0,0,0,7.61,5.529h0a5.889,5.889,0,0,1,5.614,4.081h0A5.887,5.887,0,0,1,245.563,340.293ZM106.343,125.657a8,8,0,0,1,0-11.314l8-8a8,8,0,0,1,11.314,11.314l-8,8a8,8,0,0,1-11.314,0Zm99.314,44.686a8,8,0,0,1,0,11.314l-8,8a8,8,0,0,1-11.314-11.314l8-8A8,8,0,0,1,205.657,170.343Zm180.686-12.686a8,8,0,0,1,0-11.314l8-8a8,8,0,0,1,11.314,11.314l-8,8a8,8,0,0,1-11.314,0Zm-84.686,44.686a8,8,0,0,1,0,11.314l-8,8a8,8,0,0,1-11.314-11.314l8-8A8,8,0,0,1,301.657,202.343Zm72,64a8,8,0,0,1,0,11.314l-8,8a8,8,0,0,1-11.314-11.314l8-8A8,8,0,0,1,373.657,266.343Zm84.686-12.686a8,8,0,0,1,0-11.314l8-8a8,8,0,0,1,11.314,11.314l-8,8a8,8,0,0,1-11.314,0Zm-424,56a8,8,0,0,1,0-11.314l8-8a8,8,0,0,1,11.314,11.314l-8,8a8,8,0,0,1-11.314,0Zm59.314-91.314a8,8,0,0,1,0,11.314l-8,8a8,8,0,0,1-11.314-11.314l8-8A8,8,0,0,1,93.657,218.343Zm216,88,8,8a8,8,0,0,1-11.314,11.314l-8-8a8,8,0,0,1,11.314-11.314Zm-128,72,8,8a8,8,0,0,1-11.314,11.314l-8-8a8,8,0,0,1,11.314-11.314Zm272-312a8,8,0,0,1-11.314,11.314l-8-8a8,8,0,0,1,11.314-11.314Z" style="fill:url(#linear-gradient)"/></g></svg>
